<svg xmlns="http://www.w3.org/2000/svg" data-name="Layer 1" viewBox="0 0 48 48" id="digital-marketing"><rect width="20" height="8" x="14" y="37" fill="#395763" rx="1"></rect><path fill="#395763" d="M37,45H11a1,1,0,0,1,0-2H37a1,1,0,0,1,0,2Z"></path><rect width="42" height="29" x="3" y="9" fill="#c1cdd6" rx="5"></rect><path fill="#e6eaed" d="M40,8V33a1,1,0,0,1-1,1H9a1,1,0,0,1-1-1V8a5,5,0,0,1,5-5H35A5,5,0,0,1,40,8Z"></path><path fill="#73c3f9" d="M40,8v4H8V8a5,5,0,0,1,5-5H35A5,5,0,0,1,40,8Z"></path><circle cx="13.5" cy="7.5" r="1.5" fill="#fcdd2e"></circle><circle cx="17.5" cy="7.5" r="1.5" fill="#b9ea6a"></circle><circle cx="21.5" cy="7.5" r="1.5" fill="#e6eaed"></circle><path fill="#fc5692" d="M28.452 17.082l-4.6-2.762a2.237 2.237 0 00-3.387 1.918v5.524A2.212 2.212 0 0021.6 23.708a2.213 2.213 0 002.252-.028l4.6-2.762a2.237 2.237 0 000-3.836zM28 28H15a1 1 0 010-2H28a1 1 0 010 2z"></path><path fill="#73c3f9" d="M35,28H31a1,1,0,0,1,0-2h4a1,1,0,0,1,0,2Z"></path><path fill="#fc5692" d="M28,29.5a1,1,0,0,1-1-1v-3a1,1,0,0,1,2,0v3A1,1,0,0,1,28,29.5Z"></path><path fill="#395763" d="M45,33v1a5,5,0,0,1-5,5H8a5,5,0,0,1-5-5V31H18.96a4.948,4.948,0,0,1,2.94.96l.64.46A2.926,2.926,0,0,0,24.3,33Z"></path></svg>